<svg width="900" height="900" viewBox="0 0 900 900" fill="none" xmlns="http://www.w3.org/2000/svg">
<circle cx="450" cy="450" r="450" fill="#2B2B2B"/>
<path fill-rule="evenodd" clip-rule="evenodd" d="M150 228C150 200.386 172.386 178 200 178H700C727.614 178 750 200.386 750 228V634.757C750 662.371 727.614 684.757 700 684.757H490.247C490.084 686.424 490 688.114 490 689.824C490 712.01 504.066 730.865 523.653 737.73H579C590.046 737.73 599 746.684 599 757.73C599 768.775 590.046 777.73 579 777.73H329C317.954 777.73 309 768.775 309 757.73C309 746.684 317.954 737.73 329 737.73H376.347C395.934 730.865 410 712.01 410 689.824C410 688.114 409.916 686.424 409.753 684.757H200C172.386 684.757 150 662.371 150 634.757V228ZM532.082 480.037C528.174 476.117 521.826 476.117 517.918 480.037L437.5 560.705L390.453 607.899C390.417 607.935 390.381 607.971 390.346 608.008L390.302 608.053L390.268 608.089C389.846 608.533 389.475 608.999 389.154 609.48L373.723 624.96H397.535H477.465H525.277H652.465C661.367 624.96 665.832 614.204 659.547 607.899L532.082 480.037ZM357.082 480.037L416.5 539.64L331.446 624.96H222.535C213.633 624.96 209.168 614.204 215.453 607.899L342.918 480.037C346.826 476.117 353.174 476.117 357.082 480.037ZM517 410.095C517 452.076 483.421 486.108 442 486.108C400.579 486.108 367 452.076 367 410.095C367 368.113 400.579 334.081 442 334.081C483.421 334.081 517 368.113 517 410.095ZM308 423.878C303.858 423.878 300.5 427.236 300.5 431.378C300.5 435.521 303.858 438.878 308 438.878L338 438.878C342.142 438.878 345.5 435.521 345.5 431.378C345.5 427.236 342.142 423.878 338 423.878H308ZM301.921 356.809C302.979 352.805 307.078 350.439 311.076 351.524L347.807 361.499C351.805 362.585 354.187 366.711 353.128 370.716C352.07 374.72 347.971 377.087 343.974 376.001L307.242 366.026C303.244 364.94 300.862 360.814 301.921 356.809ZM368.963 293.045C366.493 289.72 361.821 289.061 358.528 291.574C355.235 294.086 354.567 298.819 357.037 302.144L374.563 325.741C377.033 329.066 381.705 329.725 384.998 327.213C388.291 324.7 388.959 319.968 386.489 316.643L368.963 293.045ZM442 308.135C437.858 308.135 434.5 304.777 434.5 300.635V272.257C434.5 268.115 437.858 264.757 442 264.757C446.142 264.757 449.5 268.115 449.5 272.257V300.635C449.5 304.777 446.142 308.135 442 308.135ZM497.923 319.678C495.282 322.869 495.698 327.631 498.854 330.314C502.009 332.998 506.709 332.587 509.35 329.396L522.077 314.024C524.718 310.834 524.302 306.072 521.146 303.388C517.991 300.705 513.291 301.116 510.65 304.307L497.923 319.678ZM537.22 380.869C535.488 377.106 537.119 372.621 540.863 370.85L570.863 356.66C574.608 354.889 579.047 356.504 580.78 360.266C582.512 364.029 580.881 368.514 577.137 370.285L547.137 384.475C543.392 386.246 538.953 384.631 537.22 380.869ZM550 423.878C545.858 423.878 542.5 427.236 542.5 431.378C542.5 435.521 545.858 438.878 550 438.878H574C578.142 438.878 581.5 435.521 581.5 431.378C581.5 427.236 578.142 423.878 574 423.878H550Z" fill="#E2E2E2"/>
</svg>
