<svg width="600" height="600" viewBox="0 0 600 600" fill="none" xmlns="http://www.w3.org/2000/svg">
<path fill-rule="evenodd" clip-rule="evenodd" d="M0 50C0 22.3858 22.3858 0 50 0H550C577.614 0 600 22.3858 600 50V456.757C600 484.371 577.614 506.757 550 506.757H340.247C340.084 508.424 340 510.114 340 511.824C340 534.01 354.066 552.865 373.653 559.73H429C440.046 559.73 449 568.684 449 579.73C449 590.775 440.046 599.73 429 599.73H179C167.954 599.73 159 590.775 159 579.73C159 568.684 167.954 559.73 179 559.73H226.347C245.934 552.865 260 534.01 260 511.824C260 510.114 259.916 508.424 259.753 506.757H50C22.3858 506.757 0 484.371 0 456.757V50ZM382.082 302.037C378.174 298.117 371.826 298.117 367.918 302.037L287.5 382.705L240.453 429.899C240.417 429.935 240.381 429.971 240.346 430.008L240.302 430.053L240.268 430.089C239.846 430.533 239.475 430.999 239.154 431.48L223.723 446.96H247.535H327.465H375.277H502.465C511.367 446.96 515.832 436.204 509.547 429.899L382.082 302.037ZM207.082 302.037L266.5 361.64L181.446 446.96H72.5346C63.633 446.96 59.168 436.204 65.4525 429.899L192.918 302.037C196.826 298.117 203.174 298.117 207.082 302.037ZM367 232.095C367 274.076 333.421 308.108 292 308.108C250.579 308.108 217 274.076 217 232.095C217 190.113 250.579 156.081 292 156.081C333.421 156.081 367 190.113 367 232.095ZM158 245.878C153.858 245.878 150.5 249.236 150.5 253.378C150.5 257.521 153.858 260.878 158 260.878L188 260.878C192.142 260.878 195.5 257.521 195.5 253.378C195.5 249.236 192.142 245.878 188 245.878H158ZM151.921 178.809C152.979 174.805 157.078 172.439 161.076 173.524L197.807 183.499C201.805 184.585 204.187 188.711 203.128 192.716C202.07 196.72 197.971 199.087 193.974 198.001L157.242 188.026C153.244 186.94 150.862 182.814 151.921 178.809ZM218.963 115.045C216.493 111.72 211.821 111.061 208.528 113.574C205.235 116.086 204.567 120.819 207.037 124.144L224.563 147.741C227.033 151.066 231.705 151.725 234.998 149.213C238.291 146.7 238.959 141.968 236.489 138.643L218.963 115.045ZM292 130.135C287.858 130.135 284.5 126.777 284.5 122.635V94.2568C284.5 90.1146 287.858 86.7568 292 86.7568C296.142 86.7568 299.5 90.1146 299.5 94.2568V122.635C299.5 126.777 296.142 130.135 292 130.135ZM347.923 141.678C345.282 144.869 345.698 149.631 348.854 152.314C352.009 154.998 356.709 154.587 359.35 151.396L372.077 136.024C374.718 132.834 374.302 128.072 371.146 125.388C367.991 122.705 363.291 123.116 360.65 126.307L347.923 141.678ZM387.22 202.869C385.488 199.106 387.119 194.621 390.863 192.85L420.863 178.66C424.608 176.889 429.047 178.504 430.78 182.266C432.512 186.029 430.881 190.514 427.137 192.285L397.137 206.475C393.392 208.246 388.953 206.631 387.22 202.869ZM400 245.878C395.858 245.878 392.5 249.236 392.5 253.378C392.5 257.521 395.858 260.878 400 260.878H424C428.142 260.878 431.5 257.521 431.5 253.378C431.5 249.236 428.142 245.878 424 245.878H400Z" fill="#F2F2F2"/>
</svg>
